<?xml version="1.0" encoding="utf-8"?>
<!-- Generator: Adobe Illustrator 18.1.0, SVG Export Plug-In . SVG Version: 6.00 Build 0)  -->
<svg version="1.1" id="Layer_1" xmlns="http://www.w3.org/2000/svg" xmlns:xlink="http://www.w3.org/1999/xlink" x="0px" y="0px"
	 viewBox="-84 133.6 130 34.4" enable-background="new -84 133.6 130 34.4" xml:space="preserve">
<g id="Layer_2">
	<g>
		<rect x="6.8" y="139.4" fill="#E2231A" width="5.7" height="1.7"/>
		<rect x="14.8" y="142.8" fill="#E2231A" width="5.7" height="1.7"/>
		<rect x="14.8" y="139.4" fill="#E2231A" width="5.7" height="1.7"/>
		<rect x="6.8" y="136" fill="#E2231A" width="5.7" height="1.7"/>
		<rect x="6.8" y="142.8" fill="#E2231A" width="5.7" height="24.5"/>
		<rect x="14.8" y="146.2" fill="#E2231A" width="5.7" height="21"/>
		<polygon fill="#E2231A" points="-71.3,144.5 -71.3,144.5 -76.9,144.5 -76.9,144.5 -84,144.5 -84,149.6 -76.9,149.6 -76.9,167.2 
			-71.3,167.2 -71.3,149.6 -64.2,149.6 -64.2,144.5 		"/>
		<path fill="#E2231A" d="M-27.3,144.5h-3.9l-9.4,22.7h5.8l1.1-2.8h8.5l1.1,2.8h6.1L-27.3,144.5z M-31.6,159.2l2.2-5.4l2.2,5.4
			H-31.6z"/>
		<path fill="#E2231A" d="M34.1,144.5c-6.3,0-11.4,5.1-11.4,11.4c0,6.3,5.1,11.4,11.4,11.4s11.4-5.1,11.4-11.4
			C45.5,149.6,40.4,144.5,34.1,144.5z M34.1,162.4c-3.3,0-6-2.9-6-6.5c0-3.6,2.7-6.5,6-6.5c3.3,0,6,2.9,6,6.5
			C40.1,159.5,37.4,162.4,34.1,162.4z"/>
		<path fill="#E2231A" d="M-42,153c0-4.7-3.8-8.5-8.5-8.5l0,0h-5.7l0,0h-5.7v22.7h5.7v-5.6h4l4,5.7h6.2l-4.6-6.6
			C-43.9,159.2-42,156.3-42,153z M-51.1,156.4h-5.1v-6.8h5.1l0,0c1.9,0,3.4,1.5,3.4,3.4C-47.7,154.9-49.2,156.4-51.1,156.4z"/>
		<path fill="#E2231A" d="M-6.8,144.5L-6.8,144.5h-4l0,0h-5.7v22.7h9.6l0,0c6.3,0,11.3-5.1,11.3-11.3C4.5,149.6-0.5,144.5-6.8,144.5
			z M-7.4,162.1L-7.4,162.1L-7.4,162.1h-3.4v-12.5h3.4l0,0l0,0c3.4,0,6.3,2.8,6.3,6.3C-1.1,159.3-3.9,162.1-7.4,162.1z"/>
	</g>
</g>
</svg>
