<?xml version="1.0" encoding="utf-8"?>
<!-- Generator: Adobe Illustrator 18.0.0, SVG Export Plug-In . SVG Version: 6.00 Build 0)  -->
<!DOCTYPE svg PUBLIC "-//W3C//DTD SVG 1.1//EN" "http://www.w3.org/Graphics/SVG/1.1/DTD/svg11.dtd">
<svg version="1.1" id="Layer_1" xmlns="http://www.w3.org/2000/svg" xmlns:xlink="http://www.w3.org/1999/xlink" x="0px" y="0px"
	 viewBox="342.5 186.8 132 27" enable-background="new 342.5 186.8 132 27" xml:space="preserve">
<path fill="#FFFFFF" d="M352.1,213.6c-2.6,0-6.4-1-6.4-6.7v-9.7h-3.2v-1.7l3.2-0.3v-5.4l2.4-0.1l0.5,5.3l6.3-0.1v2.3h-6.1v9.3
	c0,3.6,1.7,4.4,3.7,4.4c0.8,0,2-0.1,2.9-0.4l0.5,2.4C354.5,213.5,353.1,213.6,352.1,213.6z"/>
<path fill="#FFFFFF" d="M382,213.6c-2,0-4.7-0.8-4.7-5.7v-20.8l3.1-0.5v21.2c0,2.8,1.2,3.2,2.4,3.2c0.4,0,0.8,0,1.1-0.1l0.7,2.4
	C384,213.5,383.2,213.6,382,213.6z"/>
<path fill="#FFFFFF" d="M398.5,213.1l-6.3-8.5h-1.9v8.5h-3.1v-26l3.1-0.5v16.7l7.9-8.3h3.6l-7.4,7.6l7.7,10.5L398.5,213.1
	L398.5,213.1z"/>
<path fill="#FFFFFF" d="M417.8,213.1l-0.1-1.2c-1.3,1-3.1,1.7-5,1.7c-4.5,0-8.2-3-8.2-9.7c0-6.6,3.7-9.7,9-9.7
	c1.2,0,2.6,0.3,3.6,0.7V187l3.1-0.5V213h-2.4L417.8,213.1L417.8,213.1z M417.1,197.8c-1-0.4-2.3-0.7-3.6-0.7c-3.5,0-5.9,2-5.9,6.9
	c0,5,2.6,6.7,5.3,6.7c1.5,0,3-0.7,4.2-1.6V197.8L417.1,197.8z"/>
<path fill="#FFFFFF" d="M428.3,205.9c0.1,3,2.4,4.3,5.2,4.3c2,0,3.3-0.3,4.6-0.8l0.6,2.9c-1.4,0.6-3.4,1.1-5.8,1.1
	c-5.4,0-8.6-3.3-8.6-8.5c0-4.6,2.8-9,8.2-9c5.4,0,7.2,4.5,7.2,8.2c0,0.8-0.1,1.4-0.1,1.8L428.3,205.9L428.3,205.9z M435.7,202.9
	c0-1.5-0.7-4.1-3.5-4.1c-2.6,0-3.7,2.4-3.9,4.1H435.7z"/>
<path fill="#FFFFFF" d="M448.1,213.6c-2.4,0-3.9-0.4-5.2-0.9l0.4-2.5c1.3,0.6,2.7,1,4.7,1c2.3,0,4.4-0.8,4.4-3.1
	c0-0.7-0.3-1.2-1.1-1.9c-1.3-1-3.8-1.6-5.4-2.8c-1.4-1-2.1-2.4-2.1-4c0-3.2,2.6-5.2,5.8-5.2c1.7,0,2.9,0.3,4.2,0.8l-0.3,2.3
	c-1-0.4-2-0.6-3.5-0.6c-2,0-3.1,1-3.1,2.6c0,0.9,0.6,1.7,2.2,2.6c1.9,0.9,3,1.2,4.5,2.2c1.4,0.9,2,2.2,2,3.8
	C455.5,212.4,451.3,213.6,448.1,213.6z"/>
<path fill="#FFFFFF" d="M470.8,213.1l-6.2-8.5h-1.9v8.5h-3.1v-26l3.1-0.5v16.7l7.9-8.3h3.6l-7.4,7.7l7.7,10.5L470.8,213.1
	L470.8,213.1z"/>
<path fill="#FFFFFF" d="M369.6,213.2c-0.1-0.4-0.2-0.8-0.3-1.3c-1.7,1.3-3.5,1.7-5.4,1.7c-3.6,0-6.1-2.3-6.1-5.9
	c0-4.4,4.7-5.9,11.1-6v-0.6c0-3.6-1.6-4.2-3.7-4.2c-1.1,0-2.8,0.3-4.1,0.8l-0.7-2.3c1.6-0.6,3.9-1.1,5.5-1.1c2.6,0,6.1,0.7,6.1,6.3
	v9.1c0,1,0.1,2.3,0.3,3.3L369.6,213.2z M368.9,203.8c-4.7,0-8,1-8,3.8c0,2.3,1.5,3.6,3.9,3.6c1.4,0,2.9-0.4,4.1-1.7V203.8z"/>
<path fill="#FFFFFF" d="M424.6,196.4c0.2-2,1.9-3.5,4-3.5h7.1c2.1,0,3.8,1.5,4,3.5h1.3c0.5,0,0.9,0.1,1.4,0.2v-0.8
	c0-3.4-2.7-6.1-6.1-6.1H428c-3.4,0-6.1,2.7-6.1,6.1v0.7c0.4-0.1,0.9-0.2,1.4-0.2L424.6,196.4L424.6,196.4z"/>
</svg>
